<?xml version="1.0" encoding="utf-8"?>
<!-- Generator: Adobe Illustrator 26.0.1, SVG Export Plug-In . SVG Version: 6.00 Build 0)  -->
<svg version="1.1" xmlns="http://www.w3.org/2000/svg" xmlns:xlink="http://www.w3.org/1999/xlink" x="0px" y="0px"
	 viewBox="55 215 960 580" style="enable-background:new 0 0 1080 1080;" xml:space="preserve">
<style type="text/css">
	.st0{display:none;}
	.st1{display:inline;}
	.st2{fill:#FFFFFF;}
	.st3{fill:#FF7F50;}
	.st4{fill:#FFA500;}
	.st5{fill:#FFB347;}
	.st6{fill:#6A8EAE;}
	.st7{fill:#008080;}
	.st8{fill:#3AB7B7;}
	.st9{fill:#EAE1C2;}
	.st10{display:inline;fill:#FFFFFF;}
	.st11{display:inline;fill:#FFA500;}
	.st12{display:inline;fill:#FFB347;}
	.st13{display:inline;fill:#FF7F50;}
	.st14{display:inline;fill:#EAE1C2;}
	.st15{display:inline;fill:#D9CBA3;}
	.st16{display:inline;fill:#008080;}
	.st17{display:inline;fill:#3AB7B7;}
	.st18{display:inline;fill:#6A8EAE;}
	.st19{fill:#FFFFFF;stroke:#FFFFFF;stroke-width:2;stroke-miterlimit:10;}
</style>
<g id="Layer_1" class="st0">
	<rect class="st1" width="1080" height="1080"/>
	<g class="st1">
		<path class="st2" d="M267.38,271.22c-19.01,0-38.33,0-57.67,0c19.02-19.02,18.96-40.92,18.96-40.92h19.14
			C247.8,230.3,247.94,251.78,267.38,271.22z"/>
		<path class="st3" d="M185.35,236.86c-8.75-0.89-18.22-4.02-27.73-10.97c0,0-39.7-33.08-10.9-79.01l44.59,44.16L185.35,236.86z"/>
		<path class="st3" d="M291.15,236.86c8.75-0.89,18.22-4.02,27.73-10.97c0,0,39.7-33.08,10.9-79.01l-44.59,44.16L291.15,236.86z"/>
		<polygon class="st4" points="149.59,143.64 207.39,85.84 194.35,187.62 		"/>
		<polygon class="st5" points="327.24,143.64 269.44,85.84 282.47,187.62 		"/>
		<path class="st4" d="M230.79,225.14c0,0-17.58,13.47-40.48,11.55l5.25-45.66L230.79,225.14z"/>
		<path class="st5" d="M245.77,225.14c0,0,17.58,13.47,40.48,11.55l-5.25-45.66L245.77,225.14z"/>
		<polygon class="st2" points="238.45,54.76 210.36,82.85 266.54,82.85 		"/>
	</g>
	<g class="st1">
		<g>
			<path class="st2" d="M570.59,236.39c-0.33-0.18-0.45-0.6-0.27-0.93l0,0l8.18-14.83c0.36-0.66,1-1.04,1.76-1.04
				c0.76,0,1.39,0.37,1.76,1.04l8.18,14.84c0.18,0.33,0.05,0.74-0.27,0.92c-0.31,0.17-0.7,0.07-0.9-0.22l-1.97-3.58h-13.59
				l-1.97,3.58C571.3,236.46,570.9,236.56,570.59,236.39z M586.3,231.23l-5.45-9.88c-0.12-0.22-0.34-0.35-0.6-0.35
				c-0.26,0-0.47,0.13-0.6,0.35l-5.45,9.88H586.3z"/>
			<path class="st2" d="M618.4,236.47h-10.53c-3.33,0-6.05-2.73-6.05-6.05v-4.78c0-3.33,2.73-6.05,6.05-6.05h10.53
				c0.38,0,0.68,0.31,0.68,0.68s-0.31,0.68-0.68,0.68h-10.53c-2.58,0-4.69,2.11-4.69,4.69v4.78c0,2.58,2.11,4.69,4.69,4.69h10.53
				c0.38,0,0.68,0.31,0.68,0.68S618.78,236.47,618.4,236.47z"/>
			<path class="st2" d="M636.6,236.47c-3.33,0-6.05-2.73-6.05-6.05v-4.78c0-3.33,2.73-6.05,6.05-6.05h10.53
				c0.38,0,0.68,0.31,0.68,0.68s-0.31,0.68-0.68,0.68H636.6c-2.58,0-4.69,2.11-4.69,4.69v1.71h13.19c0.38,0,0.68,0.31,0.68,0.68
				c0,0.38-0.31,0.68-0.68,0.68h-13.19v1.71c0,2.58,2.11,4.69,4.69,4.69h10.53c0.38,0,0.68,0.31,0.68,0.68s-0.31,0.68-0.68,0.68
				H636.6z"/>
			<path class="st2" d="M681.98,236.47c-0.38,0-0.68-0.31-0.68-0.68c0-0.38,0.31-0.68,0.68-0.68h12.81c1.33,0,2.42-1.08,2.42-2.42
				c0-1.01-0.63-1.92-1.58-2.27l-0.06-0.02l-12.82-3.43l-0.1-0.03c-1.51-0.53-2.52-1.96-2.52-3.56c0-2.09,1.69-3.78,3.78-3.78h12.81
				c0.38,0,0.68,0.31,0.68,0.68s-0.31,0.68-0.68,0.68H683.9c-1.33,0-2.42,1.08-2.42,2.42c0,1.01,0.63,1.92,1.59,2.27l0.06,0.02
				l12.82,3.43l0.1,0.03c1.51,0.53,2.52,1.96,2.52,3.56c0,2.09-1.69,3.78-3.78,3.78H681.98z"/>
			<path class="st2" d="M718.55,235.79v-14.84h-7.86c-0.38,0-0.68-0.31-0.68-0.68s0.31-0.68,0.68-0.68h17.08
				c0.38,0,0.68,0.31,0.68,0.68s-0.31,0.68-0.68,0.68h-7.86v14.85c-0.01,0.37-0.31,0.67-0.68,0.67
				C718.86,236.47,718.55,236.16,718.55,235.79z"/>
			<path class="st2" d="M745.95,235.11h6.92c2.58,0,4.69-2.11,4.69-4.69v-10.15c0-0.38,0.31-0.68,0.68-0.68
				c0.38,0,0.68,0.31,0.68,0.68v10.15c0,3.33-2.73,6.05-6.05,6.05h-6.92c-3.33,0-6.05-2.73-6.05-6.05v-10.15
				c0-0.38,0.31-0.68,0.68-0.68c0.38,0,0.68,0.31,0.68,0.68v10.15C741.27,233,743.37,235.11,745.95,235.11z"/>
			<path class="st2" d="M770.39,233.82v-11.57c0-1.47,1.19-2.65,2.66-2.65h9.74c3.33,0,6.05,2.73,6.05,6.05v4.78
				c0,3.33-2.73,6.05-6.05,6.05h-9.74C771.58,236.47,770.39,235.28,770.39,233.82z M773.46,235.1c0.03,0,0.05,0,0.08,0h9.24
				c2.58,0,4.69-2.11,4.69-4.69v-4.78c0-2.58-2.11-4.69-4.69-4.69h-9.24c-0.03,0-0.05,0-0.08,0h-0.42c-0.71,0-1.29,0.58-1.29,1.29
				v0.42c0,0.03,0,0.05,0,0.08v10.58c0,0.03,0,0.06,0,0.08v0.42c0,0.71,0.58,1.29,1.29,1.29H773.46z"/>
			<path class="st2" d="M801.64,220.27v15.52c0,0.38-0.31,0.68-0.68,0.68c-0.38,0-0.68-0.31-0.68-0.68v-15.52
				c0-0.38,0.31-0.68,0.68-0.68C801.33,219.59,801.64,219.9,801.64,220.27z"/>
			<path class="st2" d="M819.14,219.59h6.92c3.33,0,6.05,2.73,6.05,6.05v4.78c0,3.33-2.73,6.05-6.05,6.05h-6.92
				c-3.33,0-6.05-2.73-6.05-6.05v-4.78C813.09,222.31,815.81,219.59,819.14,219.59z M826.06,220.95h-6.92
				c-2.58,0-4.69,2.11-4.69,4.69v4.78c0,2.58,2.11,4.69,4.69,4.69h6.92c2.58,0,4.69-2.11,4.69-4.69v-4.78
				C830.75,223.06,828.65,220.95,826.06,220.95z"/>
			<path class="st2" d="M845.43,236.47c-0.38,0-0.68-0.31-0.68-0.68c0-0.38,0.31-0.68,0.68-0.68h12.81c1.33,0,2.42-1.08,2.42-2.42
				c0-1.01-0.63-1.92-1.58-2.27L859,230.4l-12.82-3.43l-0.1-0.03c-1.51-0.53-2.52-1.96-2.52-3.56c0-2.09,1.69-3.78,3.78-3.78h12.81
				c0.38,0,0.68,0.31,0.68,0.68s-0.31,0.68-0.68,0.68h-12.81c-1.33,0-2.42,1.08-2.42,2.42c0,1.01,0.63,1.92,1.59,2.27l0.06,0.02
				l12.82,3.43l0.1,0.03c1.51,0.53,2.52,1.96,2.52,3.56c0,2.09-1.69,3.78-3.78,3.78H845.43z"/>
		</g>
		<g>
			<path class="st2" d="M731.37,176.87c-9.95,0-20.05,0-30.17,0c9.95-9.95,9.92-21.41,9.92-21.41h10.01
				C721.13,155.46,721.2,166.7,731.37,176.87z"/>
			<path class="st3" d="M688.45,158.89c-4.58-0.47-9.53-2.1-14.51-5.74c0,0-20.77-17.31-5.7-41.34l23.33,23.1L688.45,158.89z"/>
			<path class="st3" d="M743.81,158.89c4.58-0.47,9.53-2.1,14.51-5.74c0,0,20.77-17.31,5.7-41.34l-23.33,23.1L743.81,158.89z"/>
			<polygon class="st4" points="669.74,110.12 699.98,79.88 693.16,133.13 			"/>
			<polygon class="st5" points="762.68,110.12 732.44,79.88 739.27,133.13 			"/>
			<path class="st4" d="M712.23,152.76c0,0-9.2,7.05-21.18,6.04l2.75-23.89L712.23,152.76z"/>
			<path class="st5" d="M720.06,152.76c0,0,9.2,7.05,21.18,6.04l-2.75-23.89L720.06,152.76z"/>
			<polygon class="st2" points="716.23,63.62 701.54,78.31 730.93,78.31 			"/>
		</g>
	</g>
	<g class="st1">
		<path class="st6" d="M267.38,598.27c-19.01,0-38.33,0-57.67,0c19.02-19.02,18.96-40.92,18.96-40.92h19.14
			C247.8,557.35,247.94,578.83,267.38,598.27z"/>
		<path class="st7" d="M185.35,563.91c-8.75-0.89-18.22-4.02-27.73-10.97c0,0-39.7-33.08-10.9-79.01l44.59,44.16L185.35,563.91z"/>
		<path class="st7" d="M291.15,563.91c8.75-0.89,18.22-4.02,27.73-10.97c0,0,39.7-33.08,10.9-79.01l-44.59,44.16L291.15,563.91z"/>
		<polygon class="st8" points="149.59,470.69 207.39,412.89 194.35,514.67 		"/>
		<polygon class="st8" points="327.24,470.69 269.44,412.89 282.47,514.67 		"/>
		<path class="st8" d="M230.79,552.19c0,0-17.58,13.47-40.48,11.55l5.25-45.66L230.79,552.19z"/>
		<path class="st8" d="M245.77,552.19c0,0,17.58,13.47,40.48,11.55l-5.25-45.66L245.77,552.19z"/>
		<polygon class="st6" points="238.45,381.81 210.36,409.9 266.54,409.9 		"/>
	</g>
	<g class="st1">
		<g>
			<path class="st2" d="M570.59,582.77c-0.33-0.18-0.45-0.6-0.27-0.93l0,0L578.5,567c0.36-0.66,1-1.04,1.76-1.04
				c0.76,0,1.39,0.37,1.76,1.04l8.18,14.84c0.18,0.33,0.05,0.74-0.27,0.92c-0.31,0.17-0.7,0.07-0.9-0.22l-1.97-3.58h-13.59
				l-1.97,3.58C571.3,582.84,570.9,582.94,570.59,582.77z M586.3,577.61l-5.45-9.88c-0.12-0.22-0.34-0.35-0.6-0.35
				c-0.26,0-0.47,0.13-0.6,0.35l-5.45,9.88H586.3z"/>
			<path class="st2" d="M618.4,582.85h-10.53c-3.33,0-6.05-2.73-6.05-6.05v-4.78c0-3.33,2.73-6.05,6.05-6.05h10.53
				c0.38,0,0.68,0.31,0.68,0.68c0,0.38-0.31,0.68-0.68,0.68h-10.53c-2.58,0-4.69,2.11-4.69,4.69v4.78c0,2.58,2.11,4.69,4.69,4.69
				h10.53c0.38,0,0.68,0.31,0.68,0.68C619.09,582.54,618.78,582.85,618.4,582.85z"/>
			<path class="st2" d="M636.6,582.85c-3.33,0-6.05-2.73-6.05-6.05v-4.78c0-3.33,2.73-6.05,6.05-6.05h10.53
				c0.38,0,0.68,0.31,0.68,0.68c0,0.38-0.31,0.68-0.68,0.68H636.6c-2.58,0-4.69,2.11-4.69,4.69v1.71h13.19
				c0.38,0,0.68,0.31,0.68,0.68c0,0.38-0.31,0.68-0.68,0.68h-13.19v1.71c0,2.58,2.11,4.69,4.69,4.69h10.53
				c0.38,0,0.68,0.31,0.68,0.68c0,0.38-0.31,0.68-0.68,0.68H636.6z"/>
			<path class="st2" d="M681.98,582.85c-0.38,0-0.68-0.31-0.68-0.68c0-0.38,0.31-0.68,0.68-0.68h12.81c1.33,0,2.42-1.08,2.42-2.42
				c0-1.01-0.63-1.92-1.58-2.27l-0.06-0.02l-12.82-3.43l-0.1-0.03c-1.51-0.53-2.52-1.96-2.52-3.56c0-2.09,1.69-3.78,3.78-3.78h12.81
				c0.38,0,0.68,0.31,0.68,0.68c0,0.38-0.31,0.68-0.68,0.68H683.9c-1.33,0-2.42,1.08-2.42,2.42c0,1.01,0.63,1.92,1.59,2.27
				l0.06,0.02l12.82,3.43l0.1,0.03c1.51,0.53,2.52,1.96,2.52,3.56c0,2.09-1.69,3.78-3.78,3.78H681.98z"/>
			<path class="st2" d="M718.55,582.17v-14.84h-7.86c-0.38,0-0.68-0.31-0.68-0.68c0-0.38,0.31-0.68,0.68-0.68h17.08
				c0.38,0,0.68,0.31,0.68,0.68c0,0.38-0.31,0.68-0.68,0.68h-7.86v14.85c-0.01,0.37-0.31,0.67-0.68,0.67
				C718.86,582.85,718.55,582.54,718.55,582.17z"/>
			<path class="st2" d="M745.95,581.48h6.92c2.58,0,4.69-2.11,4.69-4.69v-10.15c0-0.38,0.31-0.68,0.68-0.68
				c0.38,0,0.68,0.31,0.68,0.68v10.15c0,3.33-2.73,6.05-6.05,6.05h-6.92c-3.33,0-6.05-2.73-6.05-6.05v-10.15
				c0-0.38,0.31-0.68,0.68-0.68c0.38,0,0.68,0.31,0.68,0.68v10.15C741.27,579.38,743.37,581.48,745.95,581.48z"/>
			<path class="st2" d="M770.39,580.19v-11.57c0-1.47,1.19-2.65,2.66-2.65h9.74c3.33,0,6.05,2.73,6.05,6.05v4.78
				c0,3.33-2.73,6.05-6.05,6.05h-9.74C771.58,582.85,770.39,581.66,770.39,580.19z M773.46,581.48c0.03,0,0.05,0,0.08,0h9.24
				c2.58,0,4.69-2.11,4.69-4.69v-4.78c0-2.58-2.11-4.69-4.69-4.69h-9.24c-0.03,0-0.05,0-0.08,0h-0.42c-0.71,0-1.29,0.58-1.29,1.29
				v0.42c0,0.03,0,0.05,0,0.08v10.58c0,0.03,0,0.06,0,0.08v0.42c0,0.71,0.58,1.29,1.29,1.29H773.46z"/>
			<path class="st2" d="M801.64,566.65v15.52c0,0.38-0.31,0.68-0.68,0.68c-0.38,0-0.68-0.31-0.68-0.68v-15.52
				c0-0.38,0.31-0.68,0.68-0.68C801.33,565.97,801.64,566.27,801.64,566.65z"/>
			<path class="st2" d="M819.14,565.97h6.92c3.33,0,6.05,2.73,6.05,6.05v4.78c0,3.33-2.73,6.05-6.05,6.05h-6.92
				c-3.33,0-6.05-2.73-6.05-6.05v-4.78C813.09,568.69,815.81,565.97,819.14,565.97z M826.06,567.33h-6.92
				c-2.58,0-4.69,2.11-4.69,4.69v4.78c0,2.58,2.11,4.69,4.69,4.69h6.92c2.58,0,4.69-2.11,4.69-4.69v-4.78
				C830.75,569.44,828.65,567.33,826.06,567.33z"/>
			<path class="st2" d="M845.43,582.85c-0.38,0-0.68-0.31-0.68-0.68c0-0.38,0.31-0.68,0.68-0.68h12.81c1.33,0,2.42-1.08,2.42-2.42
				c0-1.01-0.63-1.92-1.58-2.27l-0.06-0.02l-12.82-3.43l-0.1-0.03c-1.51-0.53-2.52-1.96-2.52-3.56c0-2.09,1.69-3.78,3.78-3.78h12.81
				c0.38,0,0.68,0.31,0.68,0.68c0,0.38-0.31,0.68-0.68,0.68h-12.81c-1.33,0-2.42,1.08-2.42,2.42c0,1.01,0.63,1.92,1.59,2.27
				l0.06,0.02l12.82,3.43l0.1,0.03c1.51,0.53,2.52,1.96,2.52,3.56c0,2.09-1.69,3.78-3.78,3.78H845.43z"/>
		</g>
		<g>
			<path class="st6" d="M731.37,523.25c-9.95,0-20.05,0-30.17,0c9.95-9.95,9.92-21.41,9.92-21.41h10.01
				C721.13,501.84,721.2,513.08,731.37,523.25z"/>
			<path class="st7" d="M688.45,505.27c-4.58-0.47-9.53-2.1-14.51-5.74c0,0-20.77-17.31-5.7-41.34l23.33,23.1L688.45,505.27z"/>
			<path class="st7" d="M743.81,505.27c4.58-0.47,9.53-2.1,14.51-5.74c0,0,20.77-17.31,5.7-41.34l-23.33,23.1L743.81,505.27z"/>
			<polygon class="st8" points="669.74,456.5 699.98,426.26 693.16,479.51 			"/>
			<polygon class="st8" points="762.68,456.5 732.44,426.26 739.27,479.51 			"/>
			<path class="st8" d="M712.23,499.14c0,0-9.2,7.05-21.18,6.04l2.75-23.89L712.23,499.14z"/>
			<path class="st8" d="M720.06,499.14c0,0,9.2,7.05,21.18,6.04l-2.75-23.89L720.06,499.14z"/>
			<polygon class="st6" points="716.23,410 701.54,424.69 730.93,424.69 			"/>
		</g>
	</g>
	<g class="st1">
		<path class="st9" d="M267.38,967.19c-19.01,0-38.33,0-57.67,0c19.02-19.02,18.96-40.92,18.96-40.92h19.14
			C247.8,926.27,247.94,947.75,267.38,967.19z"/>
		<path class="st8" d="M185.35,932.83c-8.75-0.89-18.22-4.02-27.73-10.97c0,0-39.7-33.08-10.9-79.01L191.31,887L185.35,932.83z"/>
		<path class="st8" d="M291.15,932.83c8.75-0.89,18.22-4.02,27.73-10.97c0,0,39.7-33.08,10.9-79.01L285.19,887L291.15,932.83z"/>
		<polygon class="st5" points="149.59,839.61 207.39,781.81 194.35,883.59 		"/>
		<polygon class="st5" points="327.24,839.61 269.44,781.81 282.47,883.59 		"/>
		<path class="st5" d="M230.79,921.11c0,0-17.58,13.47-40.48,11.55l5.25-45.66L230.79,921.11z"/>
		<path class="st5" d="M245.77,921.11c0,0,17.58,13.47,40.48,11.55L280.99,887L245.77,921.11z"/>
		<polygon class="st9" points="238.45,750.73 210.36,778.82 266.54,778.82 		"/>
	</g>
	<g class="st1">
		<g>
			<path class="st2" d="M570.59,951.68c-0.33-0.18-0.45-0.6-0.27-0.93l0,0l8.18-14.83c0.36-0.66,1-1.04,1.76-1.04
				c0.76,0,1.39,0.37,1.76,1.04l8.18,14.84c0.18,0.33,0.05,0.74-0.27,0.92c-0.31,0.17-0.7,0.07-0.9-0.22l-1.97-3.58h-13.59
				l-1.97,3.58C571.3,951.76,570.9,951.86,570.59,951.68z M586.3,946.52l-5.45-9.88c-0.12-0.22-0.34-0.35-0.6-0.35
				c-0.26,0-0.47,0.13-0.6,0.35l-5.45,9.88H586.3z"/>
			<path class="st2" d="M618.4,951.77h-10.53c-3.33,0-6.05-2.73-6.05-6.05v-4.78c0-3.33,2.73-6.05,6.05-6.05h10.53
				c0.38,0,0.68,0.31,0.68,0.68c0,0.38-0.31,0.68-0.68,0.68h-10.53c-2.58,0-4.69,2.11-4.69,4.69v4.78c0,2.58,2.11,4.69,4.69,4.69
				h10.53c0.38,0,0.68,0.31,0.68,0.68C619.09,951.46,618.78,951.77,618.4,951.77z"/>
			<path class="st2" d="M636.6,951.77c-3.33,0-6.05-2.73-6.05-6.05v-4.78c0-3.33,2.73-6.05,6.05-6.05h10.53
				c0.38,0,0.68,0.31,0.68,0.68c0,0.38-0.31,0.68-0.68,0.68H636.6c-2.58,0-4.69,2.11-4.69,4.69v1.71h13.19
				c0.38,0,0.68,0.31,0.68,0.68c0,0.38-0.31,0.68-0.68,0.68h-13.19v1.71c0,2.58,2.11,4.69,4.69,4.69h10.53
				c0.38,0,0.68,0.31,0.68,0.68c0,0.38-0.31,0.68-0.68,0.68H636.6z"/>
			<path class="st2" d="M681.98,951.77c-0.38,0-0.68-0.31-0.68-0.68c0-0.38,0.31-0.68,0.68-0.68h12.81c1.33,0,2.42-1.08,2.42-2.42
				c0-1.01-0.63-1.92-1.58-2.27l-0.06-0.02l-12.82-3.43l-0.1-0.03c-1.51-0.53-2.52-1.96-2.52-3.56c0-2.09,1.69-3.78,3.78-3.78h12.81
				c0.38,0,0.68,0.31,0.68,0.68c0,0.38-0.31,0.68-0.68,0.68H683.9c-1.33,0-2.42,1.08-2.42,2.42c0,1.01,0.63,1.92,1.59,2.27
				l0.06,0.02l12.82,3.43l0.1,0.03c1.51,0.53,2.52,1.96,2.52,3.56c0,2.09-1.69,3.78-3.78,3.78H681.98z"/>
			<path class="st2" d="M718.55,951.09v-14.84h-7.86c-0.38,0-0.68-0.31-0.68-0.68c0-0.38,0.31-0.68,0.68-0.68h17.08
				c0.38,0,0.68,0.31,0.68,0.68c0,0.38-0.31,0.68-0.68,0.68h-7.86v14.85c-0.01,0.37-0.31,0.67-0.68,0.67
				C718.86,951.77,718.55,951.46,718.55,951.09z"/>
			<path class="st2" d="M745.95,950.4h6.92c2.58,0,4.69-2.11,4.69-4.69v-10.15c0-0.38,0.31-0.68,0.68-0.68
				c0.38,0,0.68,0.31,0.68,0.68v10.15c0,3.33-2.73,6.05-6.05,6.05h-6.92c-3.33,0-6.05-2.73-6.05-6.05v-10.15
				c0-0.38,0.31-0.68,0.68-0.68c0.38,0,0.68,0.31,0.68,0.68v10.15C741.27,948.3,743.37,950.4,745.95,950.4z"/>
			<path class="st2" d="M770.39,949.11v-11.57c0-1.47,1.19-2.65,2.66-2.65h9.74c3.33,0,6.05,2.73,6.05,6.05v4.78
				c0,3.33-2.73,6.05-6.05,6.05h-9.74C771.58,951.77,770.39,950.58,770.39,949.11z M773.46,950.4c0.03,0,0.05,0,0.08,0h9.24
				c2.58,0,4.69-2.11,4.69-4.69v-4.78c0-2.58-2.11-4.69-4.69-4.69h-9.24c-0.03,0-0.05,0-0.08,0h-0.42c-0.71,0-1.29,0.58-1.29,1.29
				v0.42c0,0.03,0,0.05,0,0.08v10.58c0,0.03,0,0.06,0,0.08v0.42c0,0.71,0.58,1.29,1.29,1.29H773.46z"/>
			<path class="st2" d="M801.64,935.57v15.52c0,0.38-0.31,0.68-0.68,0.68c-0.38,0-0.68-0.31-0.68-0.68v-15.52
				c0-0.38,0.31-0.68,0.68-0.68C801.33,934.89,801.64,935.19,801.64,935.57z"/>
			<path class="st2" d="M819.14,934.89h6.92c3.33,0,6.05,2.73,6.05,6.05v4.78c0,3.33-2.73,6.05-6.05,6.05h-6.92
				c-3.33,0-6.05-2.73-6.05-6.05v-4.78C813.09,937.61,815.81,934.89,819.14,934.89z M826.06,936.25h-6.92
				c-2.58,0-4.69,2.11-4.69,4.69v4.78c0,2.58,2.11,4.69,4.69,4.69h6.92c2.58,0,4.69-2.11,4.69-4.69v-4.78
				C830.75,938.36,828.65,936.25,826.06,936.25z"/>
			<path class="st2" d="M845.43,951.77c-0.38,0-0.68-0.31-0.68-0.68c0-0.38,0.31-0.68,0.68-0.68h12.81c1.33,0,2.42-1.08,2.42-2.42
				c0-1.01-0.63-1.92-1.58-2.27L859,945.7l-12.82-3.43l-0.1-0.03c-1.51-0.53-2.52-1.96-2.52-3.56c0-2.09,1.69-3.78,3.78-3.78h12.81
				c0.38,0,0.68,0.31,0.68,0.68c0,0.38-0.31,0.68-0.68,0.68h-12.81c-1.33,0-2.42,1.08-2.42,2.42c0,1.01,0.63,1.92,1.59,2.27
				l0.06,0.02l12.82,3.43l0.1,0.03c1.51,0.53,2.52,1.96,2.52,3.56c0,2.09-1.69,3.78-3.78,3.78H845.43z"/>
		</g>
		<g>
			<path class="st9" d="M731.37,892.16c-9.95,0-20.05,0-30.17,0c9.95-9.95,9.92-21.41,9.92-21.41h10.01
				C721.13,870.76,721.2,882,731.37,892.16z"/>
			<path class="st8" d="M688.45,874.19c-4.58-0.47-9.53-2.1-14.51-5.74c0,0-20.77-17.31-5.7-41.34l23.33,23.1L688.45,874.19z"/>
			<path class="st8" d="M743.81,874.19c4.58-0.47,9.53-2.1,14.51-5.74c0,0,20.77-17.31,5.7-41.34l-23.33,23.1L743.81,874.19z"/>
			<polygon class="st5" points="669.74,825.42 699.98,795.17 693.16,848.43 			"/>
			<polygon class="st5" points="762.68,825.42 732.44,795.17 739.27,848.43 			"/>
			<path class="st5" d="M712.23,868.05c0,0-9.2,7.05-21.18,6.04l2.75-23.89L712.23,868.05z"/>
			<path class="st5" d="M720.06,868.05c0,0,9.2,7.05,21.18,6.04l-2.75-23.89L720.06,868.05z"/>
			<polygon class="st9" points="716.23,778.91 701.54,793.61 730.93,793.61 			"/>
		</g>
	</g>
</g>
<g id="Layer_3" class="st0">
	<rect x="1257.34" y="120.73" class="st10" width="854.51" height="840.53"/>
	<g class="st1">
		<path class="st6" d="M1784.31,911.48c-65.08,0-131.21,0-197.41,0c65.09-65.09,64.89-140.07,64.89-140.07h65.5
			C1717.29,771.41,1717.77,844.95,1784.31,911.48z"/>
		<path class="st7" d="M1503.5,793.85c-29.94-3.05-62.38-13.77-94.92-37.53c0,0-135.9-113.25-37.31-270.47l152.64,151.15
			L1503.5,793.85z"/>
		<path class="st7" d="M1865.68,793.85c29.94-3.05,62.38-13.77,94.92-37.53c0,0,135.9-113.25,37.31-270.47l-152.64,151.15
			L1865.68,793.85z"/>
		<polygon class="st8" points="1381.08,474.76 1578.94,276.91 1534.31,625.32 		"/>
		<polygon class="st8" points="1989.19,474.76 1791.34,276.91 1835.97,625.32 		"/>
		<path class="st8" d="M1659.06,753.73c0,0-60.19,46.12-138.55,39.53l17.98-156.29L1659.06,753.73z"/>
		<path class="st8" d="M1710.33,753.73c0,0,60.19,46.12,138.55,39.53l-17.98-156.29L1710.33,753.73z"/>
		<polygon class="st6" points="1685.27,170.52 1589.12,266.67 1781.42,266.67 		"/>
	</g>
</g>
<g id="Layer_2" class="st0">
	<rect x="-336.65" y="103.49" class="st11" width="145.95" height="145.95"/>
	<rect x="-336.65" y="275.11" class="st12" width="145.95" height="145.95"/>
	<rect x="-336.65" y="446.73" class="st13" width="145.95" height="145.95"/>
	<rect x="-520.43" y="103.49" class="st14" width="145.95" height="145.95"/>
	<rect x="-520.43" y="275.11" class="st15" width="145.95" height="145.95"/>
	<rect x="-693.41" y="107.21" class="st16" width="145.95" height="145.95"/>
	<rect x="-693.41" y="278.83" class="st17" width="145.95" height="145.95"/>
	<rect x="-693.41" y="450.45" class="st18" width="145.95" height="145.95"/>
</g>
<g id="Layer_4">
	<g>
		<path class="st19" d="M64.91,785c-1.08-0.59-1.47-1.95-0.88-3.03l0,0l26.69-48.42c1.19-2.16,3.26-3.39,5.73-3.39
			s4.54,1.22,5.73,3.39L128.9,782c0.57,1.07,0.18,2.42-0.89,3.01c-1.02,0.56-2.3,0.24-2.93-0.71l-6.44-11.67H74.28l-6.44,11.67
			C67.21,785.24,65.93,785.57,64.91,785z M116.19,768.16l-17.77-32.24c-0.4-0.73-1.12-1.15-1.95-1.15s-1.55,0.42-1.95,1.15
			l-17.77,32.24H116.19z"/>
		<path class="st19" d="M220.98,785.28h-34.39c-10.86,0-19.76-8.9-19.76-19.76v-15.6c0-10.86,8.9-19.76,19.76-19.76h34.39
			c1.22,0,2.23,1,2.23,2.23c0,1.23-1,2.23-2.23,2.23h-34.39c-8.42,0-15.3,6.88-15.3,15.3v15.6c0,8.42,6.88,15.3,15.3,15.3h34.39
			c1.22,0,2.23,1,2.23,2.23S222.21,785.28,220.98,785.28z"/>
		<path class="st19" d="M280.39,785.28c-10.86,0-19.76-8.9-19.76-19.76v-15.6c0-10.86,8.9-19.76,19.76-19.76h34.39
			c1.22,0,2.23,1,2.23,2.23c0,1.23-1,2.23-2.23,2.23h-34.39c-8.42,0-15.3,6.88-15.3,15.3v5.57h43.07c1.22,0,2.23,1,2.23,2.23
			c0,1.22-1,2.23-2.23,2.23h-43.07v5.57c0,8.42,6.88,15.3,15.3,15.3h34.39c1.22,0,2.23,1,2.23,2.23s-1,2.23-2.23,2.23H280.39z"/>
		<path class="st19" d="M428.51,785.29c-1.23,0-2.23-1-2.23-2.23c0-1.22,1-2.23,2.23-2.23h41.81c4.35,0,7.89-3.53,7.89-7.89
			c0-3.31-2.07-6.27-5.17-7.41l-0.21-0.08l-41.84-11.21l-0.32-0.11c-4.92-1.74-8.22-6.41-8.22-11.63c0-6.81,5.53-12.34,12.34-12.34
			h41.81c1.23,0,2.23,1,2.23,2.23c0,1.23-1,2.23-2.23,2.23H434.8c-4.35,0-7.89,3.53-7.89,7.89c0,3.31,2.07,6.27,5.18,7.41l0.21,0.08
			l41.84,11.21l0.32,0.11c4.92,1.74,8.22,6.41,8.22,11.63c0,6.81-5.53,12.34-12.34,12.34H428.51z"/>
		<path class="st19" d="M547.9,783.05v-48.43h-25.65c-1.23,0-2.23-1-2.23-2.23c0-1.23,1-2.23,2.23-2.23h55.75
			c1.23,0,2.23,1,2.23,2.23c0,1.23-1,2.23-2.23,2.23h-25.65v48.46c-0.02,1.21-1.01,2.2-2.23,2.2
			C548.91,785.28,547.9,784.28,547.9,783.05z"/>
		<path class="st19" d="M637.37,780.82h22.6c8.43,0,15.3-6.88,15.3-15.3v-33.13c0-1.23,1-2.23,2.23-2.23c1.23,0,2.23,1,2.23,2.23
			v33.13c0,10.86-8.9,19.76-19.76,19.76h-22.6c-10.86,0-19.76-8.9-19.76-19.76v-33.13c0-1.23,1-2.23,2.23-2.23
			c1.23,0,2.23,1,2.23,2.23v33.13C622.06,773.95,628.94,780.82,637.37,780.82z"/>
		<path class="st19" d="M717.12,776.61v-37.78c0-4.78,3.88-8.67,8.67-8.67h31.78c10.86,0,19.76,8.9,19.76,19.76v15.6
			c0,10.86-8.9,19.76-19.76,19.76h-31.78C721,785.28,717.12,781.4,717.12,776.61z M727.14,780.82c0.09,0,0.18,0.01,0.27,0.01h30.16
			c8.43,0,15.3-6.88,15.3-15.3v-15.6c0-8.42-6.88-15.3-15.3-15.3h-30.16c-0.09,0-0.18,0-0.27,0.01h-1.36c-2.32,0-4.2,1.88-4.2,4.2
			v1.36c0,0.09-0.01,0.18-0.01,0.27v34.53c0,0.09,0,0.18,0.01,0.27v1.36c0,2.32,1.88,4.2,4.2,4.2H727.14z"/>
		<path class="st19" d="M819.15,732.39v50.66c0,1.23-1,2.23-2.23,2.23c-1.23,0-2.23-1-2.23-2.23v-50.66c0-1.23,1-2.23,2.23-2.23
			C818.15,730.17,819.15,731.17,819.15,732.39z"/>
		<path class="st19" d="M876.27,730.17h22.6c10.86,0,19.76,8.9,19.76,19.76v15.6c0,10.86-8.9,19.76-19.76,19.76h-22.6
			c-10.86,0-19.76-8.9-19.76-19.76v-15.6C856.51,739.07,865.41,730.17,876.27,730.17z M898.88,734.62h-22.6
			c-8.42,0-15.3,6.88-15.3,15.3v15.6c0,8.42,6.88,15.3,15.3,15.3h22.6c8.42,0,15.3-6.88,15.3-15.3v-15.6
			C914.18,741.5,907.3,734.62,898.88,734.62z"/>
		<path class="st19" d="M962.09,785.29c-1.23,0-2.23-1-2.23-2.23c0-1.22,1-2.23,2.23-2.23h41.81c4.35,0,7.89-3.53,7.89-7.89
			c0-3.31-2.07-6.27-5.17-7.41l-0.21-0.08l-41.84-11.21l-0.32-0.11c-4.93-1.74-8.22-6.41-8.22-11.63c0-6.81,5.53-12.34,12.34-12.34
			h41.81c1.22,0,2.23,1,2.23,2.23c0,1.23-1,2.23-2.23,2.23h-41.81c-4.35,0-7.89,3.53-7.89,7.89c0,3.31,2.07,6.27,5.18,7.41
			l0.21,0.08l41.84,11.21l0.32,0.11c4.93,1.74,8.22,6.41,8.22,11.63c0,6.81-5.53,12.34-12.34,12.34H962.09z"/>
	</g>
	<g>
		<path class="st6" d="M589.75,590.71c-32.47,0-65.47,0-98.5,0c32.48-32.48,32.38-69.89,32.38-69.89h32.68
			C556.31,520.82,556.56,557.51,589.75,590.71z"/>
		<path class="st7" d="M449.65,532.02c-14.94-1.52-31.12-6.87-47.36-18.73c0,0-67.81-56.51-18.61-134.95l76.16,75.41L449.65,532.02z
			"/>
		<path class="st7" d="M630.35,532.02c14.94-1.52,31.12-6.87,47.36-18.73c0,0,67.81-56.51,18.61-134.95l-76.16,75.41L630.35,532.02z
			"/>
		<polygon class="st8" points="388.57,372.81 487.29,274.09 465.02,447.93 		"/>
		<polygon class="st8" points="691.98,372.81 593.26,274.09 615.53,447.93 		"/>
		<path class="st8" d="M527.26,512c0,0-30.03,23.01-69.13,19.72l8.97-77.98L527.26,512z"/>
		<path class="st8" d="M552.84,512c0,0,30.03,23.01,69.13,19.72L613,453.75L552.84,512z"/>
		<polygon class="st6" points="540.34,221.01 492.36,268.99 588.31,268.99 		"/>
	</g>
</g>
</svg>
